<?xml version="1.0" encoding="iso-8859-1"?>
<!-- Generator: Adobe Illustrator 19.0.0, SVG Export Plug-In . SVG Version: 6.00 Build 0)  -->
<svg version="1.1" id="Capa_1" xmlns="http://www.w3.org/2000/svg" xmlns:xlink="http://www.w3.org/1999/xlink" x="0px" y="0px"
	 viewBox="0 0 480 480" style="enable-background:new 0 0 480 480;" xml:space="preserve">
<g>
	<g>
		<path d="M278.664,96.094c-1.045-2.989-2.674-5.74-4.792-8.094c8.825-9.807,8.029-24.911-1.778-33.736
			c-2.354-2.118-5.105-3.747-8.094-4.792V32h-16v16h-16V32h-16v16h-8c-4.418,0-8,3.582-8,8v64c0,4.418,3.582,8,8,8h8v16h16v-16h16
			v16h16v-17.472C276.454,122.173,283.019,108.547,278.664,96.094z M256,112h-40V96h40c4.418,0,8,3.582,8,8S260.418,112,256,112z
			 M256,80h-40V64h40c4.418,0,8,3.582,8,8S260.418,80,256,80z"/>
	</g>
</g>
<g>
	<g>
		<path d="M240,0c-48.577,0.057-87.943,39.423-88,88c0,48.601,39.399,88,88,88s88-39.399,88-88S288.601,0,240,0z M240,160
			c-39.764,0-72-32.236-72-72c0-39.765,32.236-72,72-72c39.746,0.044,71.956,32.254,72,72C312,127.764,279.765,160,240,160z"/>
	</g>
</g>
<g>
	<g>
		<path d="M392,120c-48.601,0-88,39.399-88,88c0,48.601,39.399,88,88,88c48.601,0,88-39.399,88-88
			C479.943,159.423,440.577,120.057,392,120z M392,280c-39.764,0-72-32.236-72-72c0-39.765,32.236-72,72-72
			c39.765,0,72,32.235,72,72C463.956,247.746,431.746,279.956,392,280z"/>
	</g>
</g>
<g>
	<g>
		<path d="M435.973,214.232C432.108,205.559,423.495,199.98,414,200c-1.555,0.008-3.106,0.163-4.632,0.464
			c9.141-9.599,8.77-24.79-0.829-33.931c-9.599-9.141-24.79-8.77-33.931,0.829c-8.827,9.269-8.827,23.833,0,33.102
			c-1.436-0.289-2.895-0.444-4.36-0.464c-13.255-0.023-24.019,10.703-24.042,23.958c-0.023,13.255,10.703,24.019,23.958,24.042
			c9.492,0.017,18.101-5.562,21.964-14.232c5.395,12.107,19.583,17.549,31.69,12.154
			C435.926,240.527,441.367,226.339,435.973,214.232z M370.248,232c-4.418,0-8-3.582-8-8s3.582-8,8-8s8,3.582,8,8
			S374.666,232,370.248,232z M392.128,214.232c-1.11-2.459-2.624-4.714-4.48-6.672c1.434,0.281,2.891,0.428,4.352,0.44
			c1.555-0.008,3.106-0.163,4.632-0.464C394.761,209.496,393.238,211.76,392.128,214.232z M392,192c-4.418,0-8-3.582-8-8
			s3.582-8,8-8s8,3.582,8,8S396.418,192,392,192z M414,232c-4.418,0-8-3.582-8-8s3.582-8,8-8s8,3.582,8,8S418.418,232,414,232z"/>
	</g>
</g>
<g>
	<g>
		<path d="M128,304c-48.601,0-88,39.399-88,88c0,48.601,39.399,88,88,88s88-39.399,88-88C215.943,343.423,176.577,304.057,128,304z
			 M128,464c-39.765,0-72-32.236-72-72c0-39.765,32.235-72,72-72s72,32.235,72,72C199.956,431.746,167.746,463.956,128,464z"/>
	</g>
</g>
<g>
	<g>
		<path d="M108.312,408l7.112-16H144v-16h-21.464l12.8-28.752l-14.624-6.496L105.024,376H88v16h9.912l-9.224,20.752
			c-1.794,4.038,0.025,8.765,4.063,10.559C93.774,423.765,94.881,424,96,424h64v-16H108.312z"/>
	</g>
</g>
<g>
	<g>
		<path d="M352,304c-48.601,0-88,39.399-88,88c0,48.601,39.399,88,88,88c48.601,0,88-39.399,88-88
			C439.943,343.423,400.577,304.057,352,304z M352,464c-39.764,0-72-32.236-72-72c0-39.765,32.236-72,72-72
			c39.765,0,72,32.235,72,72C423.956,431.746,391.746,463.956,352,464z"/>
	</g>
</g>
<g>
	<g>
		<path d="M88,120c-48.601,0-88,39.399-88,88c0.057,48.577,39.423,87.943,88,88c48.601,0,88-39.399,88-88
			C176,159.399,136.601,120,88,120z M88,280c-39.765,0-72-32.236-72-72c0.044-39.746,32.254-71.956,72-72c39.765,0,72,32.235,72,72
			C160,247.764,127.765,280,88,280z"/>
	</g>
</g>
<g>
	<g>
		<path d="M118.111,168.583c-1.543-0.387-3.128-0.583-4.719-0.583H56v16h57.392c1.051-0.005,2.045,0.48,2.688,1.312
			c0.654,0.822,0.882,1.904,0.616,2.92L106.4,229.416c-0.381,1.519-1.746,2.583-3.312,2.584H48v16h55.096
			c8.909,0.009,16.676-6.058,18.824-14.704l10.288-41.176C134.815,181.728,128.503,171.19,118.111,168.583z"/>
	</g>
</g>
<g>
	<g>
		<rect x="40" y="200" width="40" height="16"/>
	</g>
</g>
<g>
	<g>
		<path d="M392,400v-40c0-4.418-3.582-8-8-8c-1.731,0-3.415,0.561-4.8,1.6L352,374l-27.2-20.4c-3.535-2.651-8.549-1.935-11.2,1.6
			c-1.039,1.385-1.6,3.069-1.6,4.8v40h-16v16h24c4.418,0,8-3.582,8-8v-32l19.2,14.4c2.844,2.133,6.756,2.133,9.6,0L376,376v32
			c0,4.418,3.582,8,8,8h24v-16H392z"/>
	</g>
</g>
<g>
	<g>
		<rect x="72" y="48" width="16" height="16"/>
	</g>
</g>
<g>
	<g>
		<rect x="120" y="40" width="16" height="16"/>
	</g>
</g>
<g>
	<g>
		<rect x="56" y="88" width="16" height="16"/>
	</g>
</g>
<g>
	<g>
		<rect y="328" width="16" height="16"/>
	</g>
</g>
<g>
	<g>
		<rect x="16" y="288" width="16" height="16"/>
	</g>
</g>
<g>
	<g>
		<rect x="8" y="368" width="16" height="16"/>
	</g>
</g>
<g>
	<g>
		<rect x="232" y="464" width="16" height="16"/>
	</g>
</g>
<g>
	<g>
		<rect x="208" y="448" width="16" height="16"/>
	</g>
</g>
<g>
	<g>
		<rect x="256" y="448" width="16" height="16"/>
	</g>
</g>
<g>
	<g>
		<rect x="400" y="40" width="16" height="16"/>
	</g>
</g>
<g>
	<g>
		<rect x="416" y="88" width="16" height="16"/>
	</g>
</g>
<g>
	<g>
		<rect x="344" y="32" width="16" height="16"/>
	</g>
</g>
<g>
	<g>
		<rect x="448" y="288" width="16" height="16"/>
	</g>
</g>
<g>
	<g>
		<rect x="448" y="360" width="16" height="16"/>
	</g>
</g>
<g>
	<g>
		<rect x="464" y="320" width="16" height="16"/>
	</g>
</g>
<g>
</g>
<g>
</g>
<g>
</g>
<g>
</g>
<g>
</g>
<g>
</g>
<g>
</g>
<g>
</g>
<g>
</g>
<g>
</g>
<g>
</g>
<g>
</g>
<g>
</g>
<g>
</g>
<g>
</g>
</svg>
